<?xml version="1.0" encoding="UTF-8"?><svg id="b" xmlns="http://www.w3.org/2000/svg" viewBox="0 0 146.41 138.32"><g id="c"><path d="m141.1,55.91h5.31s-7.89-7.01-7.89-7.01C130.23,20.67,104.09,0,73.21,0S16.18,20.67,7.89,48.9l-7.89,7.01h4.75s0,26.5,0,26.5H0s7.89,7.01,7.89,7.01c8.29,28.23,34.43,48.9,65.32,48.9s57.02-20.67,65.31-48.9l7.89-7.01h-5.31s0-26.5,0-26.5Z" style="fill:#151515;"/><path d="m31.96,26.5l-9.84,2.13C33.93,13.35,52.43,3.5,73.2,3.5s39.3,9.87,51.12,25.16l-10-2.16,9.43,12.46h-7.41c-9.36-13.84-25.2-22.96-43.14-22.96s-33.78,9.12-43.14,22.96h-7.52l9.42-12.46Z" style="fill:#fff;"/><path d="m73.21,24.02c24.14,0,43.77,19.64,43.77,43.77v2.73c0,24.14-19.64,43.77-43.77,43.77s-43.77-19.64-43.77-43.77v-2.73c0-24.14,19.64-43.77,43.77-43.77m0-2c-25.24,0-45.77,20.53-45.77,45.77v2.73c0,25.24,20.53,45.77,45.77,45.77s45.77-20.53,45.77-45.77v-2.73c0-25.24-20.53-45.77-45.77-45.77h0Z" style="fill:#fff;"/><path d="m73.21,111.84c-22.84,0-41.43-18.58-41.43-41.43v-2.51c0-22.84,18.58-41.43,41.43-41.43s41.43,18.58,41.43,41.43v2.51c0,22.84-18.58,41.43-41.43,41.43Z" style="fill:none; stroke:#fff; stroke-miterlimit:10; stroke-width:.29px;"/><path d="m73.21,28.19c21.9,0,39.71,17.81,39.71,39.71v2.51c0,21.9-17.81,39.71-39.71,39.71s-39.71-17.81-39.71-39.71v-2.51c0-21.9,17.81-39.71,39.71-39.71m0-1.71c-22.84,0-41.43,18.58-41.43,41.43v2.51c0,22.84,18.58,41.43,41.43,41.43s41.43-18.58,41.43-41.43v-2.51c0-22.84-18.58-41.43-41.43-41.43h0Z" style="fill:#fff;"/><path d="m73.21,107.39c-20.45,0-37.08-16.63-37.08-37.08v-2.3c0-20.44,16.63-37.08,37.08-37.08s37.08,16.63,37.08,37.08v2.3c0,20.45-16.63,37.08-37.08,37.08Z" style="fill:none; stroke:#fff; stroke-miterlimit:10; stroke-width:.57px;"/><path d="m73.21,32.36c19.66,0,35.65,15.99,35.65,35.65v2.3c0,19.66-15.99,35.65-35.65,35.65s-35.65-15.99-35.65-35.65v-2.3c0-19.66,15.99-35.65,35.65-35.65m0-1.43c-20.45,0-37.08,16.63-37.08,37.08v2.3c0,20.45,16.63,37.08,37.08,37.08s37.08-16.63,37.08-37.08v-2.3c0-20.44-16.63-37.08-37.08-37.08h0Z" style="fill:#fff;"/><path d="m73.21,102.94c-18.05,0-32.73-14.68-32.73-32.73v-2.09c0-18.05,14.68-32.73,32.73-32.73s32.73,14.68,32.73,32.73v2.09c0,18.05-14.68,32.73-32.73,32.73Z" style="fill:none; stroke:#fff; stroke-miterlimit:10; stroke-width:.86px;"/><path d="m73.21,36.52c17.42,0,31.59,14.17,31.59,31.59v2.09c0,17.42-14.17,31.59-31.59,31.59s-31.59-14.17-31.59-31.59v-2.09c0-17.42,14.17-31.59,31.59-31.59m0-1.14c-18.05,0-32.73,14.68-32.73,32.73v2.09c0,18.05,14.68,32.73,32.73,32.73s32.73-14.68,32.73-32.73v-2.09c0-18.05-14.68-32.73-32.73-32.73h0Z" style="fill:#fff;"/><path d="m73.21,98.48c-15.65,0-28.38-12.73-28.38-28.38v-1.88c0-15.65,12.73-28.38,28.38-28.38s28.38,12.73,28.38,28.38v1.88c0,15.65-12.73,28.38-28.38,28.38Z" style="fill:none; stroke:#fff; stroke-miterlimit:10; stroke-width:1.14px;"/><path d="m73.21,40.69c15.18,0,27.53,12.35,27.53,27.53v1.88c0,15.18-12.35,27.53-27.53,27.53s-27.53-12.35-27.53-27.53v-1.88c0-15.18,12.35-27.53,27.53-27.53m0-.86c-15.65,0-28.38,12.73-28.38,28.38v1.88c0,15.65,12.73,28.38,28.38,28.38s28.38-12.73,28.38-28.38v-1.88c0-15.65-12.73-28.38-28.38-28.38h0Z" style="fill:#fff;"/><path d="m73.21,94.03c-13.25,0-24.04-10.78-24.04-24.04v-1.67c0-13.25,10.78-24.04,24.04-24.04s24.04,10.78,24.04,24.04v1.67c0,13.25-10.78,24.04-24.04,24.04Z" style="fill:none; stroke:#fff; stroke-miterlimit:10; stroke-width:1.43px;"/><path d="m73.21,44.86c12.94,0,23.46,10.53,23.46,23.46v1.67c0,12.94-10.53,23.46-23.46,23.46s-23.46-10.53-23.46-23.46v-1.67c0-12.94,10.53-23.46,23.46-23.46m0-.57c-13.25,0-24.04,10.78-24.04,24.04v1.67c0,13.25,10.78,24.04,24.04,24.04s24.04-10.78,24.04-24.04v-1.67c0-13.25-10.78-24.04-24.04-24.04h0Z" style="fill:#fff;"/><path d="m73.21,89.58c-10.86,0-19.69-8.83-19.69-19.69v-1.46c0-10.86,8.83-19.69,19.69-19.69s19.69,8.83,19.69,19.69v1.46c0,10.86-8.83,19.69-19.69,19.69Z" style="fill:none; stroke:#fff; stroke-miterlimit:10; stroke-width:1.71px;"/><path d="m73.21,49.02c10.7,0,19.4,8.7,19.4,19.4v1.46c0,10.7-8.7,19.4-19.4,19.4s-19.4-8.7-19.4-19.4v-1.46c0-10.7,8.7-19.4,19.4-19.4m0-.29c-10.86,0-19.69,8.83-19.69,19.69v1.46c0,10.86,8.83,19.69,19.69,19.69s19.69-8.83,19.69-19.69v-1.46c0-10.86-8.83-19.69-19.69-19.69h0Z" style="fill:#fff;"/><path d="m73.21,85.12c-8.46,0-15.34-6.88-15.34-15.34v-1.25c0-8.46,6.88-15.34,15.34-15.34s15.34,6.88,15.34,15.34v1.25c0,8.46-6.88,15.34-15.34,15.34Z" style="fill:none; stroke:#fff; stroke-miterlimit:10; stroke-width:2px;"/><path d="m114.32,111.82l10-2.16c-11.82,15.29-30.34,25.16-51.12,25.16s-39.27-9.85-51.08-25.13l9.84,2.13-9.42-12.46h7.52c9.36,13.84,25.2,22.96,43.14,22.96s33.78-9.12,43.14-22.96h7.41l-9.43,12.46Z" style="fill:#fff;"/><path d="m117.94,86.75c-.28.77-.59,1.54-.91,2.29-.14.34-.29.67-.45,1-.31.72-.66,1.43-1.02,2.13-.16.32-.33.64-.51.95-.39.74-.81,1.46-1.25,2.17-.18.31-.37.61-.56.9-.48.75-.98,1.49-1.52,2.21-.2.3-.42.6-.64.89-3.64,4.77-8.13,8.84-13.26,11.98-.59.37-1.19.72-1.8,1.05-6.89,3.82-14.81,6-23.23,6s-16.34-2.18-23.23-6c-.61-.33-1.22-.68-1.81-1.05-5.13-3.14-9.62-7.21-13.26-11.98-.22-.29-.44-.59-.64-.89-.54-.72-1.04-1.46-1.52-2.21-.19-.29-.38-.59-.56-.9-.44-.71-.86-1.43-1.25-2.17-.18-.31-.35-.63-.51-.95-.36-.7-.71-1.41-1.02-2.13-.16-.33-.31-.66-.45-1-.32-.75-.63-1.52-.91-2.29-.11-.31-.22-.62-.32-.92H10.55c.06.3.14.6.22.9l.02.02h13.03c.25.77.53,1.53.83,2.29h-12.33l.85,1h11.88c.29.72.6,1.43.94,2.13h-10.81l.81.95h10.45c.35.73.73,1.46,1.13,2.17h-9.28v.05l.72.85h9.06c.42.74.86,1.46,1.32,2.17h-8.86l9.01,11.91-8.34-1.8-.23-.04h0s-1.21-.24-1.21-.24l.83,1.14c11.95,16.07,31.09,26.49,52.61,26.49s40.62-10.4,52.58-26.44c.11-.14.21-.28.31-.42l.53-.73-1.31.2h0s-.07.01-.07.01l-8.5,1.83,9.02-11.91h-8.75c.46-.71.9-1.43,1.32-2.17h8.67l.79-.83v-.07h-8.96c.4-.71.78-1.44,1.13-2.17h10.11l.91-.95h-10.57c.34-.7.65-1.41.94-2.13h11.61l.96-1h-12.17c.3-.76.58-1.52.83-2.29h12.95l.14-.15c.07-.26.14-.51.19-.77h-17.6c-.1.3-.21.61-.32.92Zm-3.62,25.07l10-2.16c-11.82,15.29-30.34,25.16-51.12,25.16s-39.27-9.85-51.08-25.13l9.84,2.13-9.42-12.46h7.52c9.36,13.84,25.2,22.96,43.14,22.96s33.78-9.12,43.14-22.96h7.41l-9.43,12.46Zm7.2-25.07c-.25.77-.54,1.54-.83,2.29-.14.34-.27.67-.42,1-.3.72-.62,1.43-.95,2.13-.15.32-.31.63-.47.95-.36.73-.75,1.46-1.15,2.17-.17.3-.35.6-.52.9-.45.75-.91,1.49-1.39,2.21-.2.3-.4.6-.61.89-9.22,13.3-24.6,22.03-41.98,22.03s-32.76-8.73-41.98-22.03c-.21-.29-.41-.59-.61-.89-.48-.72-.94-1.46-1.38-2.21-.18-.3-.36-.6-.53-.9-.4-.71-.79-1.44-1.15-2.17-.16-.32-.32-.63-.47-.95-.33-.7-.65-1.41-.95-2.13-.15-.33-.28-.66-.42-1-.29-.75-.58-1.52-.83-2.29h1.69c.28.77.57,1.54.9,2.29.13.34.27.67.43,1,.3.72.64,1.43.99,2.13.16.32.32.64.5.95.38.74.78,1.46,1.21,2.17.17.3.36.6.55.9.46.75.95,1.49,1.47,2.21.2.3.41.6.63.89,3.47,4.7,7.75,8.77,12.64,11.98.55.36,1.1.71,1.66,1.05,7.38,4.44,16.02,7,25.24,7s17.86-2.56,25.23-7c.56-.34,1.12-.69,1.66-1.05,4.89-3.21,9.17-7.28,12.64-11.98.22-.29.43-.59.63-.89.52-.72,1.01-1.46,1.47-2.21.19-.3.38-.6.55-.9.43-.71.83-1.43,1.21-2.17.18-.31.34-.63.5-.95.35-.7.69-1.41.99-2.13.16-.33.3-.66.43-1,.33-.75.62-1.52.9-2.29h2.52Z" style="fill:#fff;"/><path d="m27.63,51.57c.28-.77.59-1.54.91-2.29.14-.34.29-.67.45-1,.31-.72.66-1.43,1.02-2.13.16-.32.33-.64.51-.95.39-.74.81-1.46,1.25-2.17.18-.31.37-.61.56-.9.48-.75.98-1.49,1.52-2.21.2-.3.42-.6.64-.89,3.64-4.77,8.13-8.84,13.26-11.98.59-.37,1.2-.72,1.81-1.05,6.89-3.82,14.81-6,23.23-6s16.34,2.18,23.23,6c.61.33,1.21.68,1.8,1.05,5.13,3.14,9.62,7.21,13.26,11.98.22.29.44.59.64.89.54.72,1.04,1.46,1.52,2.21.19.29.38.59.56.9.44.71.86,1.43,1.25,2.17.18.31.35.63.51.95.36.7.71,1.41,1.02,2.13.16.33.31.66.45,1,.32.75.63,1.52.91,2.29.11.31.22.62.32.92h17.6c-.05-.26-.12-.51-.19-.77l-.14-.15h-12.95c-.25-.77-.53-1.53-.83-2.29h12.17l-.96-1h-11.61c-.29-.72-.6-1.43-.94-2.13h10.57l-.91-.95h-10.11c-.35-.73-.73-1.46-1.13-2.17h8.96v-.07l-.79-.83h-8.67c-.42-.74-.86-1.46-1.32-2.17h8.75l-9.02-11.91,8.5,1.83.07.02h0s1.31.19,1.31.19l-.53-.73c-.1-.14-.2-.28-.31-.42C113.82,12.9,94.7,2.5,73.2,2.5S32.54,12.92,20.59,28.99l-.83,1.14,1.21-.23h0s.23-.05.23-.05l8.34-1.8-9.01,11.91h8.86c-.46.71-.9,1.43-1.32,2.17h-9.06l-.72.85v.05h9.28c-.4.71-.78,1.44-1.13,2.17h-10.45l-.81.95h10.81c-.34.7-.65,1.41-.94,2.13h-11.88l-.85,1h12.33c-.3.76-.58,1.52-.83,2.29h-13.03l-.02.02c-.08.3-.16.6-.22.9h16.76c.1-.3.21-.61.32-.92Zm4.33-25.07l-9.84,2.13C33.93,13.35,52.43,3.5,73.2,3.5s39.3,9.87,51.12,25.16l-10-2.16,9.43,12.46h-7.41c-9.36-13.84-25.2-22.96-43.14-22.96s-33.78,9.12-43.14,22.96h-7.52l9.42-12.46Zm-7.08,25.07c.25-.77.54-1.54.83-2.29.14-.34.27-.67.42-1,.3-.72.62-1.43.95-2.13.15-.32.31-.63.47-.95.36-.73.75-1.46,1.15-2.17.17-.3.35-.6.53-.9.44-.75.9-1.49,1.38-2.21.2-.3.4-.6.61-.89,9.22-13.3,24.6-22.03,41.98-22.03s32.76,8.73,41.98,22.03c.21.29.41.59.61.89.48.72.94,1.46,1.39,2.21.17.3.35.6.52.9.4.71.79,1.44,1.15,2.17.16.32.32.63.47.95.33.7.65,1.41.95,2.13.15.33.28.66.42,1,.29.75.58,1.52.83,2.29h-2.52c-.28-.77-.57-1.54-.9-2.29-.13-.34-.27-.67-.43-1-.3-.72-.64-1.43-.99-2.13-.16-.32-.32-.64-.5-.95-.38-.74-.78-1.46-1.21-2.17-.17-.3-.36-.6-.55-.9-.46-.75-.95-1.49-1.47-2.21-.2-.3-.41-.6-.63-.89-3.47-4.7-7.75-8.77-12.64-11.98-.54-.36-1.1-.71-1.66-1.05-7.37-4.44-16.01-7-25.23-7s-17.86,2.56-25.24,7c-.56.34-1.11.69-1.66,1.05-4.89,3.21-9.17,7.28-12.64,11.98-.22.29-.43.59-.63.89-.52.72-1.01,1.46-1.47,2.21-.19.3-.38.6-.55.9-.43.71-.83,1.43-1.21,2.17-.18.31-.34.63-.5.95-.35.7-.69,1.41-.99,2.13-.16.33-.3.66-.43,1-.33.75-.62,1.52-.9,2.29h-1.69Z" style="fill:#fff;"/><path d="m141.1,55.91h5.31s-7.89-7.01-7.89-7.01C130.23,20.67,104.09,0,73.21,0S16.18,20.67,7.89,48.9l-7.89,7.01h4.75s0,26.5,0,26.5H0s7.89,7.01,7.89,7.01c8.29,28.23,34.43,48.9,65.32,48.9s57.02-20.67,65.31-48.9l7.89-7.01h-5.31s0-26.5,0-26.5Zm2.55,27.55l-4.61,4.1-1.37,1.21c-.18.65-.38,1.29-.59,1.92-8.65,27.02-34.02,46.63-63.87,46.63s-55.23-19.61-63.88-46.63c-.21-.63-.41-1.27-.59-1.92l-1.37-1.21-4.61-4.1h23.92c-.09-.32-.18-.7-.26-1.04H5.75v-26.51h20.67c.08-.35.17-.73.26-1.05H2.76l4.61-4.1,1.37-1.21c.18-.65.38-1.29.59-1.92C17.98,20.61,43.35,1,73.21,1s55.22,19.61,63.87,46.63c.21.63.41,1.27.59,1.92l1.37,1.21,4.61,4.1h-24.98s.19.7.27,1.04h21.16v26.51h-21.16c-.08.35-.27,1.04-.27,1.05h24.98Z" style="fill:#fff;"/><text transform="translate(31.81 119.02) rotate(37.71)" style="fill:#151515; font-family:Ultraquick, Ultraquick; font-size:16px;"><tspan x="0" y="0">J</tspan></text><text transform="translate(47.41 128.83) rotate(21.89)" style="fill:#151515; font-family:Ultraquick, Ultraquick; font-size:16px;"><tspan x="0" y="0">I</tspan></text><text transform="translate(63.74 133.73) rotate(4.41)" style="fill:#151515; font-family:Ultraquick, Ultraquick; font-size:16px;"><tspan x="0" y="0">T</tspan></text><text transform="translate(85.71 133.3) rotate(-15.62)" style="fill:#151515; font-family:Ultraquick, Ultraquick; font-size:16px;"><tspan x="0" y="0">S</tspan></text><text transform="translate(106.93 125.01) rotate(-36.1)" style="fill:#151515; font-family:Ultraquick, Ultraquick; font-size:16px;"><tspan x="0" y="0">U</tspan></text><text transform="translate(37.99 28.35) rotate(-36.52)" style="fill:#151515; font-family:Ultraquick, Ultraquick; font-size:16px;"><tspan x="0" y="0">U</tspan></text><text transform="translate(53.34 18.81) rotate(-18.03)" style="fill:#151515; font-family:Ultraquick, Ultraquick; font-size:16px;"><tspan x="0" y="0">L</tspan></text><text transform="translate(67.3 15.16) rotate(-1.39)" style="fill:#151515; font-family:Ultraquick, Ultraquick; font-size:16px;"><tspan x="0" y="0">T</tspan></text><text transform="translate(84.5 15.99) rotate(17.82)" style="fill:#151515; font-family:Ultraquick, Ultraquick; font-size:16px;"><tspan x="0" y="0">R</tspan></text><text transform="translate(101.07 22.62) rotate(38.13)" style="fill:#151515; font-family:Ultraquick, Ultraquick; font-size:16px;"><tspan x="0" y="0">A</tspan></text><text transform="translate(117.09 36.98) rotate(44.46)" style="fill:#151515; font-family:Ultraquick, Ultraquick; font-size:16px;"><tspan x="0" y="0"> </tspan></text><path d="m115.43,55.79c-.2-.12-.44-.3-.69-.5-.67-.52-1.49-1.18-2.78-1.33-.13-.02-.26-.06-.45-.13l-.31-.1c-.33-.1-.6-.36-.7-.7-.12-.38-.42-.69-.8-.83l-.18-.07c-.17-.06-.34-.13-.51-.18-.23-.08-.47-.15-.68-.21l-.36-.1s-.09-.02-.16-.03c-.07-.01-.14-.02-.27-.04-.07-.01-.14-.02-.21-.02-.2,0-.4.05-.58.13,0,0-.2.11-.23.12-.07.04-.14.08-.25.16-.07.05-.13.09-.2.14-.23.17-.45.36-.67.56-.1.1-.2.19-.29.28l-.16.16s-.1.12-.14.18c-.1.14-.15.23-.19.39l-.02.07c-.02.07-.17.74-.17.74-.03.11-.03.23-.03.34l.02.36c.01.25.03.5.01.75-.01.24-.06.49-.16.75-.04.1-.06.21-.07.32-.05.58.02,1.12.09,1.59.06.43.11.81.06,1.14-.21,1.43-1.37,2.6-2.61,2.61-.33,0-.68-.02-1.04-.06-.47-.05-.85-.4-.94-.86-.05-.27-.13-.56-.25-.85-.62-1.6-1.45-2.83-2.54-3.78-.31-.27-.44-.69-.32-1.09.78-2.77.54-5.39-.73-7.81-.79-1.5-2.01-2.48-3.52-2.84-.03,0-.07-.02-.1-.03-.19-.06-.38-.18-.73-.41-.62-.42-1.32-.61-2.19-.61-.19,0-.37.01-.6.03-.02,0-.05,0-.07,0-.37,0-.72-.2-.91-.52-.04-.06-.08-.12-.12-.18-1.79-2.09-4.24-3.13-6.41-4.06l-.22-.09c-.31-.13-.53-.37-.61-.7,0,0-.03-.09-.03-.09-.14-.45.04-.94.44-1.2.65-.42,1.06-1.09,1.17-1.94.02-.15.05-.3.07-.44l.07-.4c.25-1.66-.4-2.27-.91-2.58-.33-.2-.53-.57-.5-.96.05-.93.03-1.82-.08-2.72-.21-1.76-.96-3.19-2.24-4.26-1.56-1.31-3.43-1.97-5.56-1.97-.24,0-.49,0-.74.03-3.57.25-6.32,2.74-6.83,6.21-.14.95-.18,1.82-.13,2.65.03.38-.15.74-.47.95-.49.32-.82.96-.98,1.9-.22,1.22.35,2.09.76,2.73l.13.21c.16.26.38.46.65.61.49.28.72.82.46,1.32-.02.05-.05.11-.08.16-.12.2-.3.36-.52.44-.04.02-.08.03-.12.04l-.19.09c-2.13.99-4.33,2.02-6.21,3.95-.05.06-.11.13-.17.23-.19.32-.61.51-.99.51-.02,0-.03,0-.05,0-.12,0-.24-.01-.36-.01-.41,0-1.51,0-2.46.85-.12.1-.26.18-.41.23l-.08.02c-2.29.7-3.77,2.25-4.41,4.61-.6,2.21-.6,4.19-.01,6.05.13.41,0,.87-.34,1.14-.25.21-.57.49-.83.84-.1.14-.21.28-.36.48-.56.74-1.41,1.86-1.55,3.19-.05.49-.44.88-.93.94-.23.03-.47.05-.7.08-.04,0-.07,0-.11,0-1.09,0-2.65-1.26-2.65-2.44,0-.4.02-.79.04-1.22.05-.95.1-1.94-.1-2.98-.03-.14-.07-.27-.14-.38-.15-.27-.27-.62-.38-1.07l-.11-.54c-.02-.11-.05-.21-.07-.3l-.07-.25s-.03-.09-.05-.14c-.04-.11-.09-.21-.14-.3-.03-.05-.06-.11-.12-.19-.05-.06-.1-.13-.16-.19-.1-.11-.22-.21-.42-.32-.08-.05-.16-.09-.24-.13-.08-.03-.15-.06-.22-.08l-.17-.05c-.06-.02-.15-.03-.21-.04-.1-.02-.19-.03-.29-.04-.25-.03-.49-.04-.87-.05-.05,0-.18,0-.2.01-.15.01-.3.03-.45.05-.11.02-.22.04-.33.06-.04,0-.08.01-.11.02-.18.02-.37.07-.57.16-.31.14-.55.39-.68.7l-.15.38c-.12.31-.37.54-.68.64-.24.07-.44.16-.68.25-.07.03-.14.06-.22.09-.11.04-.23.06-.35.06-.03,0-.2-.01-.25-.01-.47,0-.95.25-1.22.64-.02.03-.05.07-.08.1-.16.18-.37.32-.81.58-.31.18-.67.39-1.01.68-.47.39-1.35,1.13-1.33,2.33.04,1.92.52,3.85,1.43,5.75.04.09.14.23.21.32,1.18,1.42,2.69,2.16,4.15,2.89.32.16.65.32.96.49.3.16.66.24,1.03.24.15,0,.29-.01.42-.04.07-.01.13-.02.2-.02.2,0,.4.06.58.17.12.08.31.21.71.61.13.13.3.33.49.57,0,0,.09.11.09.11.22.28.29.65.17.99-.11.34-.39.6-.74.69-2.76.72-4.84,3.12-5.06,5.82,0,.09-.02.18-.04.29l-.03.17c-.2,1.37-.5,3.43.72,5.41.5.81.94,1.64,1.45,2.58.23.43.47.87.71,1.3,1.27,2.28,2.89,3.67,4.95,4.26,1.16.33,2.2,1.07,3.1,2.18.42.52.87,1.02,1.32,1.52.23.26.47.52.7.79,1.06,1.22,2.26,1.48,3.07,1.48.12,0,.25,0,.38-.02.26-.02.52-.04.78-.04.42,0,.77.04,1.1.13,1.27.35,2.55.69,3.83,1.03l2.27.61c.36.1.67.27.97.55l1.31,1.18c1.77,1.59,3.59,3.23,5.29,4.93,1.76,1.77,2.64,3.22,2.94,4.87.39,2.16,1.29,3.73,2.83,4.96.71.56,1.51,1.2,2.69,1.2.27,0,.55-.04.83-.11.97-.25,2.21-.98,2.61-2.99.21-1.04.45-1.8.79-2.46.62-1.21.49-2.18.28-2.78-.26-.73-.08-1.33.59-2.01,2.02-2.03,4.72-4.69,7.68-7.14.19-.16.37-.26.53-.3l.13-.04c1.89-.56,3.67-1.08,5.53-1.42.21-.04.43-.09.67-.15.41-.1.68-.16.93-.16h.01c.08,0,.16,0,.24.03.38.09.75.13,1.11.13.92,0,2.26-.3,3.45-1.76.7-.85,1.42-1.7,2.15-2.54.79-.91,1.75-1.55,2.84-1.9,1.25-.4,2.32-1.12,3.17-2.15,1.4-1.69,2.47-3.56,3.52-5.38.33-.58.67-1.17,1.01-1.74.37-.61.5-1.32.42-2.22l-.11-1.31c-.04-.52-.08-1.04-.13-1.57-.07-.81-.23-1.66-.86-2.41-.96-1.15-2.08-1.99-3.32-2.49-.33-.13-.67-.24-1-.32-.36-.09-.65-.36-.76-.72-.11-.36-.03-.74.22-1.02l.44-.5c.59-.65.87-.82,1.16-.89.08-.02.16-.03.25-.03.05,0,.1,0,.15,0,.11.02.22.02.33.02.49,0,.95-.14,1.46-.43.29-.17.59-.32.89-.48l.09-.05c1.15-.6,2.35-1.23,3.34-2.35.51-.58,1.03-1.22,1.24-2.15.1-.42.19-.83.28-1.25.13-.58.26-1.16.4-1.74.39-1.57-.17-2.99-1.5-3.81Zm-54.38,17.74c-.05.42-.05.81-.05,1.18v1.55s-1.51-.16-1.51-.16c-.24-.05-.48-.09-.71-.13-.53-.09-1.06-.18-1.55-.34-.13-.05-.36-.12-.62-.12h-.11s-2.62.2-2.62.2l1.47-2.18c.34-.5.59-1.07.75-1.69l.09-.34.25-.25c.46-.46.87-.96,1.23-1.5l1.09-1.63,1.04,1.66c.13.21.26.42.37.63.55.97,1.03,1.94.88,3.11Zm16.03,20.75c-1.27,0-3.78,3.16-3.9,3.16s-2.3-3.16-3.48-3.17c-.2,0-.52.11-.58-.17-.04-.22.26-.27.43-.34,1.17-.51,2.3-1.09,3.25-1.97.28-.26.58-.33.89-.04,1,.93,2.18,1.55,3.46,2,.17.06.45.1.38.37-.05.21-.3.16-.46.16Zm12.9-18.58c-.11-.02-.21-.03-.32-.03-.27,0-.5.06-.65.1-.4.1-.85.17-1.31.25-.26.04-.5.08-.74.13l-1.69.31.2-1.71c.08-.66.09-1.37.04-2.17l-.03-.39,2.33-3.91,1.12,1.66c.26.38.53.73.84,1.07.34.38.6.83.8,1.41.16.46.38.89.67,1.28l1.93,2.6-3.19-.59Z" style="fill:#fff;"/><path d="m114.75,56.9c-.94-.58-1.64-1.49-2.89-1.64-.75-.09-1.46-.62-2.26-.26-.05-.34-.07-.58-.12-.82-.05-.25-.14-.5-.21-.74-.22-.08-.43-.17-.65-.24-.22-.07-.43-.14-.65-.2-.11-.03-.22-.06-.33-.09-.01,0-.01,0-.02,0,0,0-.01,0-.02,0-.09-.02-.18-.03-.26-.04-.01,0-.03.01-.04.02-.09.05-.43.29-.13.07-.1.07-.2.14-.3.21-.2.15-.38.3-.56.47-.09.08-.18.17-.27.26-.04.04-.09.09-.13.13-.02.02-.02.03-.03.05,0,.02-.01.05-.02.07-.01.05-.03.13-.04.15-.02.11-.04.21-.07.32-.01.06-.03.12-.04.18,0,.07,0,.14.01.2.02.35.04.7.02,1.05-.02.39-.11.76-.23,1.11-.08.93.28,1.84.14,2.8-.28,1.94-1.89,3.71-3.85,3.72-1.23,0-2.47-.24-3.83-.39.77-.73.63-1.47.35-2.21-.53-1.35-1.27-2.56-2.43-3.48-.95-.75-.92-.75-.56-1.9.77-2.45.67-4.86-.54-7.16-.57-1.09-1.43-1.89-2.67-2.18-.47-.11-.85-.36-1.25-.63-.91-.61-1.92-.33-2.89-.32.24.39.6.44.94.54.9.27,1.8.53,2.7.81.5.15.95.4,1.28.82.93,1.18,1.31,2.54,1.15,4.02-.11,1.02-.63,1.22-1.45.61-.47-.35-.93-.72-1.39-1.08.29,1.31.76,2.5,1.52,3.57.23.32.78.59.19,1.09-.14.12.09.27.2.36.43.35.87.7,1.32,1.03.63.47,1.21,1,1.66,1.65,1.33,1.94,1.04,3.24-.96,4.43-1.21.72-2.09.6-3.06-.43-1.17-1.25-1.71-2.76-1.82-4.44-.03-.51.05-1.04-.12-1.64-1.85,3.79-1.07,7,1.85,9.83-.92-.19-1.44-.78-1.85-1.47-1.07-1.83-1.56-3.82-1.32-5.93.15-1.26.4-2.53,1.55-3.36.29-.21.03-.33-.13-.44-.35-.23-.8-.3-1.05-.69-.41-.64-.97-1.11-1.62-1.49-.65-.38-1.07-.93-1.23-1.68-.04-.18-.03-.4-.26-.53-.27,1.22-.35,2.4.14,3.57.34.83.26,1.62-.25,2.36-.34.5-.74.96-1.21,1.35-.37.3-.79.59-1.27.23-.49-.37-.69-.85-.4-1.63-.06.59-.1,1.05.39,1.23.55.21.84-.23,1.08-.59.23-.35.4-.75.54-1.15.46-1.35,0-2.06-1.44-2.04-1.94.03-3.82.45-5.56,1.37-.52.27-.96.66-1.29,1.15-.29.44-.39.89-.18,1.4.07.16.2.31.07.53-.93-.15-1.46-.77-1.85-1.56-.73-1.49-.96-3.11-1.22-4.73-.06-.38.03-1.02-.36-1.03-.42-.01-.35.64-.42,1-.36,1.82-1.01,3.53-1.92,5.13-.5.89-1.33,1.36-2.21,1.27.3-.29.59-.53.84-.8.56-.61.54-1.26-.04-1.84-.32-.32-.71-.54-1.12-.73-1.09-.5-2.24-.77-3.41-.96-.97-.16-1.94-.35-2.93-.09-.66.17-.93.56-.85,1.23.08.7.33,1.34.73,1.93.33.49.71.81,1.37.33-.46.86-.85,1.01-1.46.5-1.68-1.42-2.29-2.43-1.46-4.19.47-.99.35-2.06-.08-3.27-.16.73-.25,1.33-.69,1.69-.93.76-1.89,1.5-2.71,2.39-.22.24-.75.23-.82.52-.09.37.45.46.65.74.79,1.11,1.02,2.37,1.05,3.68,0,.06-.02.12-.03.19-.13-.08-.03-.29-.21-.32-.2.14.06.38-.16.56-.13-1.25-.32-2.46-.91-3.56-.15.7-.2,1.38-.32,2.06-.28,1.57-.85,3.01-2.06,4.13-.66.61-1.44.95-2.26.48-1.06-.61-2.32-1.11-2.42-2.63-.03-.46.14-.88.34-1.28.45-.89,1.1-1.63,1.9-2.22.58-.42,1.17-.83,1.75-1.24.24-.17.42-.34,0-.5-.4-.15-.32-.36-.09-.6.9-.95,1.4-2.12,1.9-3.3.06-.15.21-.3,0-.51-.53.37-1.04.76-1.59,1.09-.66.4-1.06.23-1.25-.5-.42-1.6.48-4.5,2.59-5.13.86-.26,1.71-.53,2.56-.81.35-.11.73-.16,1.13-.6-1.25.11-2.42-.37-3.36.62-.22.23-.54.31-.84.4-1.88.57-3.03,1.84-3.54,3.71-.53,1.94-.6,3.88.15,5.8.38.97.32,1.03-.49,1.7-.36.3-.77.58-1.03.95-1.02,1.42-2.41,2.77-1.25,4.81-1.09.14-2.15.29-3.21.4-1.8.18-4.18-1.69-4.19-3.72,0-1.33.22-2.65-.04-3.96-.24-.43-.4-.92-.51-1.41-.04-.19-.08-.38-.12-.56-.02-.09-.04-.19-.06-.28-.01-.05-.02-.09-.04-.14,0-.03-.01-.04-.02-.06-.03-.07-.06-.14-.09-.21,0,0,0,0,0,0-.03-.04-.06-.07-.09-.11,0,0,0,0,0,0-.03-.01-.11-.06-.16-.1-.05-.02-.1-.04-.15-.05-.04-.01-.08-.02-.11-.03-.1-.02-.2-.04-.3-.05-.23-.03-.46-.03-.69-.04-.01,0-.02,0-.03,0-.03,0-.05,0-.08,0-.12.01-.24.02-.36.04s-.24.04-.36.07c-.06.01-.12.03-.18.04-.14.04-.12.03.07-.03-.06,0-.14.02-.22.05-.18.45-.35.91-.5,1.38-.07.24-.18.34-.42.31-2.56-.24-4.18,1.22-5.03,2.34-.38.32-.74.69-.73,1.19.04,1.83.51,3.57,1.3,5.22,0,.02.03.04.04.05,1.26,1.51,3.06,2.18,4.72,3.06.18.1.45.11.66.07,1.12-.22,1.87.41,2.59,1.11.32.31.58.68.87,1.02,2.58,3.07,5.79,5.02,9.79,5.6,2.11.3,3.89-.85,4.4-2.92.1-.41.29-.75.58-1.04,1.32-1.3,2.11-2.87,2.52-4.66.04-.16.04-.36.31-.46.68,1.62,1.82,2.96,2.67,4.48.65,1.16,1.19,2.31,1.02,3.77-.14,1.17.21,2.4-.61,3.45-.04.05-.05.13-.06.19-.06.44-.31.5-.67.33-1.23-.58-2.63-.53-3.9-.96-.17-.06-.44-.16-.52.09-.06.2.21.25.36.33,2.95,1.72,4.39,4.48,5.28,7.62.04.15.1.34-.04.44-.17.12-.28-.07-.4-.16-2.57-1.98-5.15-3.96-7.72-5.93-1.58-1.22-3.13-2.48-5.01-3.22-.31-.12-.63-.31-1.2-.15,1.91,1.22,3.34,2.7,4.42,4.67-1.5-.26-2.85-.44-4.17-.73-1.09-.24-2.06-.71-2.67-1.75-.34-.59-.92-.93-1.79-1.08.49.62.87,1.15,1.13,1.73.48,1.09,1.34,1.64,2.49,1.78.47.06.93.11,1.4.17,1.35.18,2.76.09,4.03.64,2.85,1.24,5.61,2.63,7.5,5.24.35.49.73.96,1.09,1.45.76,1.03,1.6,1.99,2.6,2.79.5.41,1.01.82,1.42,1.33.4.49.43.96-.07,1.41-.66.61-1.31,1.22-1.96,1.84-.22.22-.36.19-.62.03-2.16-1.27-4.31-2.56-6.64-3.52-4.56-1.87-8.1-5.03-11.21-8.76-.59-.7-.94-1.52-1-2.45,0-.13.11-.32-.14-.4-1.08,2.24.24,4.04,1.06,5.93-1.76-1.85-3.36-3.74-1.95-6.65-.35.12-.56.18-.77.25-1.92.64-3.48-.2-4.02-2.15-.15-.54-.25-1.1-.57-1.57-.38-.55-.28-1.06.15-1.52.71-.77,1.59-1.12,2.64-1.1,1.07.02,2.07.35,3.08.65.91.27,1.82.57,2.8.59-1.15-.73-2.22-1.55-3.49-2-3.19-1.11-6.81,1.24-7.09,4.57-.01.18-.05.35-.07.53-.23,1.56-.37,3.07.54,4.54.79,1.27,1.46,2.62,2.19,3.92.94,1.68,2.18,3.07,4.18,3.65,1.5.43,2.75,1.37,3.75,2.61.63.78,1.33,1.51,1.99,2.27.63.72,1.38,1.11,2.36,1.02.78-.07,1.56-.08,2.33.13,2.03.56,4.06,1.09,6.1,1.63.57.15,1.07.44,1.51.84,2.24,2.03,4.51,4.02,6.65,6.16,1.58,1.58,2.89,3.3,3.3,5.56.3,1.66.97,3.07,2.34,4.16.74.59,1.4,1.12,2.39.87,1.02-.27,1.47-1.02,1.66-1.99.19-.97.45-1.91.91-2.8.28-.54.43-1.15.21-1.76-.48-1.34-.02-2.45.89-3.37,2.49-2.51,5.04-4.96,7.77-7.22.3-.25.62-.44.99-.55,1.91-.56,3.82-1.13,5.78-1.49.79-.14,1.57-.46,2.38-.27,1.35.32,2.41-.14,3.27-1.18.71-.86,1.44-1.72,2.17-2.56.93-1.07,2.08-1.86,3.42-2.28,1.05-.34,1.88-.92,2.57-1.74,1.77-2.13,3-4.6,4.42-6.96.26-.43.29-.93.24-1.44-.08-.96-.15-1.92-.24-2.88-.05-.61-.15-1.21-.56-1.7-.77-.92-1.68-1.66-2.81-2.12-2.81-1.14-5.02.22-7.2,1.72-.02.01,0,.08.01.13.29.04.57-.03.85-.1,1.32-.35,2.63-.75,3.96-1.03,1.4-.3,2.73-.14,3.76,1.01.34.38.53.8.21,1.28-.37.53-.57,1.12-.69,1.73-.44,2.24-2.7,2.75-4.23,2.11-.21-.09-.41-.27-.78-.11.79,1.22.66,2.44.05,3.65-.57,1.14-1.24,2.2-2.33,2.92.53-.96,1.16-1.86,1.5-2.91.34-1.07.37-2.12-.21-3.26-.22,1.71-.29,2.03-.91,2.8-2.52,3.13-5.38,5.9-8.94,7.82-2.9,1.56-5.96,2.8-8.77,4.52-.06.03-.12.05-.18.08-.38.21-.7.17-1.02-.16-.43-.45-.9-.87-1.36-1.3-.99-.92-1-1.15-.02-2.07.06-.06.13-.13.2-.18,1.86-1.34,3.28-3.08,4.6-4.94.91-1.27,1.94-2.43,3.3-3.29,2.56-1.62,5.28-2.56,8.32-2.68,2.54-.1,3.89-1.26,4.45-3.57-.76.17-1.3.6-1.69,1.23-.32.51-.77.86-1.31,1.12-1.65.78-3.47.69-5.28,1.16,1.02-1.94,2.44-3.35,4.13-4.6-.43-.17-.67,0-.91.09-1.04.41-2.03.95-2.95,1.6-1.95,1.39-3.82,2.88-5.71,4.36-1.36,1.07-2.72,2.14-4.08,3.21-.04-.04-.09-.07-.13-.11,1.22-3.06,2.22-6.26,5.49-8.01-.29-.21-.55-.13-.8-.07-1.21.3-2.48.34-3.66.79-.41.16-.81.18-.76-.49.02-.27-.12-.52-.27-.75-.27-.42-.35-.87-.27-1.35.15-.91.14-1.83.06-2.75-.02-.2,0-.4.1-.58,1.18-1.98,2.36-3.95,3.54-5.93.01-.02.08-.02.16-.03.06.16.12.32.18.49.5,1.48,1.15,2.87,2.21,4.04.47.52.79,1.12,1.02,1.79.58,1.66,2.23,2.67,3.96,2.42,3.32-.49,6.26-1.8,8.71-4.14.75-.71,1.41-1.5,2.1-2.27.71-.79,1.5-1.5,2.7-1.33.34.05.67-.08.96-.25,1.38-.79,2.9-1.37,3.99-2.62.42-.48.81-.96.95-1.59.23-1,.44-2.01.69-3.01.25-1.02-.07-1.87-.92-2.39Zm-77.1-3.1c.38-.53,1.4-.52,1.83.02.18.22.3.5.4.77.24.7.05.95-.79.96-.33-.19-1.14.09-.98-.86.02-.13-.12-.17-.24-.18-.7-.04-.43-.42-.22-.71Zm-5,4.36c-.11-.12-.04-.26.05-.36.32-.35.53-.76.67-1.21l.51-.33c.9-.11,1.72-.56,2.63-.63.36-.03.8-.19.95.34.15.53-.11.85-.59,1.03-.06.02-.12.06-.19.08-1.06.27-2.02.75-2.88,1.39-.23-.3.14-.43,0-.64-.32-.07-.54.15-.78.29-.12.07-.25.14-.37.02Zm.53,2.59c-.26-.25.1-.26.16-.39.12-.24.25-.46.43-.67.66-.76,1.4-1.34,2.45-1.48.5-.06.97-.33,1.46-.49.45-.14.96.26.94.67,0,.33-.24.36-.42.44-.6.25-1.2.49-1.8.74-.37.16-.71.36-1,.66-.17.18-.41.65-.63,0-.07-.2-.28-.03-.4.05-.23.14-.43.32-.64.48-.18.13-.38.16-.55,0Zm2.84,1.92c-.35.37-.89.41-1.39.36-.48-.05-.68-.43-.33-.73.68-.59,1.19-1.39,2.11-1.69.89-.29,1.78-.61,2.56-1.27.23.64.09,1.11-.43,1.45-.88.57-1.78,1.1-2.52,1.87Zm2.87,1.69c.2-.64.65-1.08,1-1.58.13-.19.43-.39.22-.63-.24-.28-.5,0-.71.13-.51.33-.98.7-1.47,1.05-.25.17-.57.45-.8.05-.21-.36.15-.58.43-.7.79-.36,1.46-.87,2.02-1.52.32-.38.5-.23.65.16.4,1.01-.22,2.46-1.34,3.05Zm1.41-6.84c-.3-.46-.66-.51-1-.4-.57.18-.68-.27-.89-.58-.06-.09-.08-.25.02-.31.48-.26,1.01-.39,1.53-.31.43.07.4.54.43.88.02.17-.04.35-.08.71Zm9.17,11.01c-2.23-.81-4.23-2.03-6.17-3.37-.07-.05-.14-.11-.21-.17-.31-.33-.77-.74-.57-1.12.17-.32.69.05,1.01.18,1.44.61,2.87.41,4.27-.05,1.32-.44,2.26.05,3.09,1,.62.72,1.12,1.51,1.34,2.45.22.98-.12,1.51-1.17,1.5-.4,0-1-.21-1.59-.42Zm4.61,2.21c-.09.47-.34.83-.79,1.01-.61.25-1.2.58-1.96.5.96-.57,1.52-1.42,1.77-2.47.24-1.04-.11-2.02-.36-3.01,1.3,1.06,1.62,2.42,1.33,3.97Zm1.08-4.31c-.16.12-.39.36-.58.13-.18-.21.12-.34.24-.47.73-.79,1.35-1.66,1.88-2.6.11-.21.17-.46.57-.67-.4,1.49-.94,2.73-2.11,3.6Zm50.72,18.7c-.49,1.51-1.65,2.41-2.96,3.16.94-1.1,2.07-2.02,2.96-3.16Zm-40.77-23.93c2.13.05,4.19-.31,6.15-1.16,1.2-.51,1.69-1.53,1.84-2.8.22.23.23.48.28.71.32,1.29,1.15,2.08,2.4,2.48,1.75.56,3.55.72,5.36.78.13,0,.27,0,.4,0,.27.02.66-.09.72.3.06.37-.29.52-.58.64-.12.05-.26.07-.39.08-1.82.04-3.62-.09-5.39-.53-1.11-.27-2.03-.83-2.6-1.86-.03-.06-.08-.11-.12-.16-.03-.03-.08-.04-.19-.09-.41,1.54-1.7,1.89-3.03,2.15-1.43.28-2.86.53-4.32.49-.22,0-.45,0-.67-.06-.35-.1-.73-.26-.65-.72.09-.45.48-.28.78-.27Zm-1.49,3.54c.09-.63.46-.93,1.1-.94,2.06-.02,3.95-.65,5.78-1.56.8-.4,1.57-.86,2.49-.94.56-.05,1.07.01,1.54.32,2.18,1.41,4.56,2.15,7.16,2.17.6,0,.96.3,1,.86.12,1.68-.12,3.31-1.09,4.74-.33.49-.84.75-1.46.57-.22-.06-.42-.19-.45-.45-.02-.22.16-.3.31-.4,1.5-1.03,2.24-2.94,1.81-4.68-.03-.14.01-.35-.21-.37-.15-.01-.21.15-.28.26-1.37,2.06-3.46,2.82-5.76,3.12-1.39.18-1.96-.3-2.28-1.67-.13-.54-.23-1.09-.24-1.66,0-.35-.04-.7-.24-1.12-.3.93-.19,1.82-.36,2.67-.28,1.36-.72,1.82-2.1,1.68-2.21-.22-4.19-.95-5.34-3.06-.05-.1-.1-.23-.23-.22-.16,0-.19.17-.23.29-.51,1.43.32,3.74,1.62,4.59.27.18.78.29.53.77-.23.44-.67.36-1.07.22-.33-.11-.62-.29-.81-.57-.96-1.39-1.41-2.92-1.18-4.62Zm18.05,8.44c-.14,1.26-.65,2.32-1.75,3.28-.03-1.34-.17-2.52.36-3.63.19-.4.44-.79.96-.65.51.14.48.6.44,1Zm-4.19-.61c-.45.8-1.15,1.23-2.05,1.33-.71.08-1.27-.34-1.44-1.03-.11-.46-.16-.93-.13-1.32,0-.1,0-.12,0-.15.06-.71-.15-1.56.72-1.93.77-.33,2.31.1,2.81.69.5.59.54,1.61.1,2.4Zm-4.93-1.08c.01.4-.02.8-.12,1.19-.25.91-.77,1.25-1.69,1.09-1.11-.2-2.12-1.41-2.11-2.53,0-.86.48-1.51,1.33-1.8,1.91-.66,2.55-.22,2.59,1.79,0,.09,0,.18,0,.27Zm-5.9,4.95c-1.02-.93-1.77-1.99-1.8-3.43,0-.33.05-.65.41-.76.4-.12.63.14.79.46.24.46.43.93.46,1.46.05.75.04,1.51.14,2.28Zm-6.71,8.66c2.79,1.09,4.1,3.45,5.24,5.96-2.05-1.72-3.3-4.14-5.24-5.96Zm3.15-8.85c2.67,1.18,5.4,1.82,8.18,2.27.11.02.22.04.4-.15-.53-.21-1.01-.39-1.47-.59-1.77-.78-2.74-2.18-2.66-3.81.01-.19-.06-.47.17-.54.25-.08.32.21.41.36.65,1.09,1.72,1.36,2.87,1.46.49.04.98.05,1.47.12.37.05.57.32.65.68.09.38-.23.43-.44.57-.59.38-.81.93-.6,1.55.21.63.71.93,1.34.93.63,0,1.15-.29,1.35-.92.21-.63-.03-1.14-.59-1.49-.31-.19-.64-.33-.49-.82.14-.44.46-.48.84-.51,1.55-.11,3.12-.17,4.05-1.74.65.73.19,2.37-.52,3.2-.78.91-1.91,1.19-2.88,1.78,2.74-.4,5.39-1.11,7.95-2.18-2.97,3.9-16.13,3.83-20.01-.17Zm6.63,4.97c2.5.58,5,.97,7.53.12-2.53,1.1-5.03.75-7.53-.12Zm2.67,2.05c-1.3.1-4.96-1.22-5.74-2.06,1.78.92,3.7,1.48,5.74,2.06Zm9.06-2.81c-1.58,1.2-3.23,2.25-5.12,2.87,1.71-.96,3.41-1.92,5.12-2.87Zm-11.44,21.79c-.3-.04-.53-.22-.74-.43-1.36-1.32-2.72-2.65-4.08-3.97-.3-.29-.35-.54-.03-.85.55-.53,1.08-1.06,1.62-1.61.24-.25.46-.22.69,0,1.54,1.39,3.13,2.73,4.49,4.31.11.13.2.29.26.39.03.5-1.76,2.21-2.2,2.15Zm3.11-2.15c-.15-.03-.26-.18-.38-.28-.11-.08-.18-.18-.24-.29l-3.72-3.88s0,0,0,0c-.03-.04-.06-.07-.1-.11-.52-.57-1.38-.88-1.41-1.82,0-.02-.01-.04-.01-.07.03-.3-.59-.46-.22-.76.18-.15.56-.04.85-.06,1.34-.1,2.49-.68,3.51-1.52,1.1-.9,2.94-.9,3.99.03,1.03.91,2.02,1.27,4.53,1.59-.55.3-.77.63-.7,1.11.03.2-.14.31-.27.43-.31.29-.64.56-.93.87-.12.13-4.62,4.71-4.76,4.75-.04.01-.08,0-.12,0Zm7.95-3.05c.27.27.33.48.02.78-1.41,1.34-2.8,2.7-4.2,4.05-.22.21-.46.43-.81.43-.29,0-.52-.12-.73-.31-.33-.3-.65-.61-.98-.91-.75-.69-.73-.68-.06-1.39,1.37-1.48,2.86-2.82,4.4-4.13.37-.32.62-.42.98.03.42.52.91.98,1.39,1.45Zm-3.53-11.02c1.76-1.72,3.51-3.44,5.2-5.22-1.65,1.83-3.22,3.73-5.2,5.22Zm9.28-1.19c-2.08,1.83-3.32,4.41-5.51,6.16,1.24-2.57,2.68-4.96,5.51-6.16Zm5.61-13.96c-.37-1.04-.31-2.98,1.2-4.13-.71,2.22-.46,4.1,1.49,5.52-1.11.05-2.41-.61-2.69-1.38Zm11.54-6.58c-.18.37-.46.66-.79.9-2.17,1.54-4.52,2.73-7.04,3.57-.21.07-.43.13-.65.17-1.04.19-1.37-.09-1.35-1.13.03-1.29,1.66-3.48,2.87-3.89.53-.18,1.03-.05,1.52.09,1.71.49,3.39.58,5.05-.16.13-.06.31-.16.44-.03.18.17.01.34-.06.49Zm2.65-9.6c.24-1.13.88-1.54,1.79-1.12.35.16.62.41.56.82-.06.44-.48.03-.7.27.07.2.3.47-.08.67-.42.22-.83.44-1.32.17-.34-.19-.32-.48-.25-.81Zm-.5,2.44c.01-1.19.74-1.63,1.8-1.07.37.2.28.47-.02.67-.53.34-1.05.72-1.78.54,0,0,0-.08,0-.14Zm3.15,6.32c-.17.19-.38.1-.54-.02-.53-.41-1.02-.86-1.62-1.18-.22-.12-.44-.41-.7-.11-.27.31.06.48.21.67.32.41.71.78.8,1.36-1.04-.44-1.61-1.88-1.16-2.81.24-.5.46-.53.81-.11.44.52.97.92,1.56,1.25.19.11.39.22.56.37.19.16.27.38.08.59Zm2.99-.71c-.09.25-.29.32-.45.31-.71-.1-1.3-.17-1.72-.77-.5-.72-1.38-.96-2.06-1.47-.33-.25-.77-.43-.65-.98.07-.32.1-.56.53-.26.46.31.96.6,1.49.75,1.1.3,1.83,1.07,2.61,1.79.19.17.35.36.24.64Zm.85-2.22c-.13.13-.29.13-.43.05-.35-.19-.68-.41-1.1-.67.03.43-.11.86-.48.42-.53-.64-1.27-.81-1.93-1.16-.28-.15-.57-.27-.85-.4-.28-.13-.52-.26-.34-.66.16-.35.38-.56.78-.43.92.28,1.86.51,2.74.88.73.31,1.12,1.06,1.63,1.65.08.09.06.21-.02.31Zm-.02-3c-.07-.07-.15-.11-.23-.03-.07.08-.04.17.03.24.01.02.04.03.05.04.2.22.72.39.57.64-.24.39-.59-.07-.86-.18-1.04-.43-2.05-.92-3.12-1.3-.36-.13-.61-.39-.52-.82.1-.46.45-.49.83-.48,1.08.03,2.05.62,3.13.67.06,0,.15.11.17.18.19.57.55,1.05.91,1.66-.46-.14-.73-.35-.97-.61Z" style="fill:#151515;"/><path d="m66.6,36.32c.25.07.29-.13.25-.27-.32-1.08.14-2.12.16-3.19,0-.36.04-.72.27-1.02.35-.44.45-.97.51-1.5.05-.47.15-.93.36-1.35.32-.62.64-.79,1.36-.75-.97.26-1.2.67-.94,1.61.31,1.11.46,2.2-.46,3.14-.09.09-.15.24-.16.36-.04.76-.15,1.52-.07,2.27.13,1.23.21,2.45.23,3.68.01.72.1,1.43.51,2.06.7,1.07,1.54,2.04,2.48,2.91.88.81,3.13.73,3.91-.14.66-.73,1.28-1.49,1.91-2.25.48-.58.72-1.25.83-2.01.31-2.14.3-4.29.38-6.44,0-.25-.09-.44-.27-.59-.42-.35-.52-.82-.54-1.32-.03-.69-.01-1.38.18-2.06.2-.71-.12-1.13-.84-1.2-.15-.02-.3,0-.45,0,1-.1,1.38.02,1.62.68.38,1.02.72,2.08.94,3.13.24,1.16.3,2.39.2,3.61-.03.32-.09.66.08,1.01.2-.12.36-.27.58-.32.64-.15.98-.58,1.07-1.22.04-.29.1-.57.14-.86.07-.47.14-1.01-.31-1.28-.5-.31-.84.14-1.18.54,0-.73-.05-1.38.01-2.02.1-1.05.1-2.1-.02-3.15-.16-1.37-.72-2.53-1.79-3.42-1.56-1.31-3.38-1.78-5.38-1.65-2.99.2-5.2,2.18-5.63,5.11-.16,1.1-.2,2.23,0,3.34.09.51.13,1.04-.02,1.58-1.04-.76-1.36-.61-1.58.63-.15.82.33,1.4.71,2.01.18.29.59.29.91.38Zm8.05,1.68c-1,.37-2.06.6-3.03-.06.62-.71,2.38-.66,3.03.06Zm-3.43,2.45c.77-.58,3.36-.38,4.07.36-.22.11-.37.02-.49-.06-.75-.52-1.63-.25-2.44-.36-.18-.03-.62.31-.98.41-.13.04-.28.09-.34-.09-.04-.13.09-.19.17-.26Zm3.92,1.26c-1.45.96-2.94.56-4.42.14,1.47-.37,2.95-.02,4.42-.14Z" style="fill:#151515;"/><path d="m86.38,46.13c-.75.07-1.39.1-2.03.18-.43.06-.86.09-1.24-.14-1.85-1.07-3.31-2.45-3.64-4.7-.03-.18.02-.41-.25-.51-.68,1.8-.79,3.66-.76,5.54.02,1.43-.01,1.45-1.46,1.35-.02,0-.04,0-.07,0-.36,0-.48-.14-.21-.43.76-.83,1.05-1.87,1.26-2.92.32-1.58.53-3.18,1.03-4.71.11-.32.11-.68.16-1.02-.05-.02-.11-.03-.16-.05-.31.86-.62,1.72-1.19,2.44-.7.87-1.38,1.76-2.09,2.62-1.39,1.67-3.69,1.79-5.26.28-1.46-1.4-2.73-2.95-3.65-4.77-.07.38.02.73.16,1.05.45,1.01.65,2.09.84,3.17.25,1.39.5,2.78,1.37,3.95.22.3.06.39-.23.4-.25,0-.49,0-.74,0-.53.03-.73-.22-.67-.74.1-.87.02-1.75-.03-2.61-.07-1.15-.19-2.3-.78-3.37-.09,1.72-.88,3.01-2.1,4.19-1.37,1.33-2.99.89-4.58.97.38.21.76.33,1.15.42,3.62.82,7.19,1.82,10.78,2.75.51.13.48-.1.37-.44-.08-.22-.13-.46.11-.59.29-.16.61-.14.9.01.3.16.23.41.12.64-.26.58.07.55.45.44.73-.2,1.42-.53,2.18-.67,3.21-.61,6.3-1.71,9.52-2.3.23-.04.53-.06.77-.44Z" style="fill:#151515;"/><path d="m83.69,93.5c1.21-.41,2.43-.79,3.62-1.24,3.9-1.5,7.52-3.45,10.39-6.59.93-1.02,1.67-2.14,2.05-3.53-5.44,4.03-11.04,7.81-16.96,11.39.45.15.68.05.9-.02Z" style="fill:#151515;"/><path d="m51.67,88.37c3.29,2.48,7.06,3.91,10.95,5.09.16.05.34.14.65-.09-5.89-3.24-11.16-7.29-16.53-11.3-.15.46.05.65.15.86,1.08,2.26,2.8,3.96,4.77,5.45Z" style="fill:#151515;"/><path d="m86.68,44.21c-1.65-1.93-3.94-2.85-6.2-3.81,1.88,1.57,4.01,2.73,6.2,3.81Z" style="fill:#151515;"/><path d="m75.82,49.47c-.26.08-.69.17-.63.48.06.28.5.23.77.22.85-.03,1.7-.05,2.53-.24.66-.15,1.36-.2,2.12-.66-1.26-.28-2.35-.26-3.43-.14-.46.05-.91.2-1.36.34Z" style="fill:#151515;"/><path d="m65.84,49.28c.55.39,1.17.48,1.77.6,1.05.21,2.1.42,3.18.27.14-.02.35,0,.38-.2.02-.18-.17-.26-.3-.31-1.64-.67-3.32-.69-5.02-.35Z" style="fill:#151515;"/><path d="m65.58,40.37c-2.19,1.02-4.29,1.96-6.07,3.79,1.14-.15,5.74-3.03,6.07-3.79Z" style="fill:#151515;"/><path d="m19.33,58.86h8.99v20.32h-8.99c-5.61,0-10.16-4.55-10.16-10.16h0c0-5.61,4.55-10.16,10.16-10.16Z" style="fill:#fff;"/><path d="m118.07,58.99h8.44c5.54,0,10.03,4.49,10.03,10.03h0c0,5.54-4.49,10.03-10.03,10.03h-8.44v-20.06h0Z" style="fill:#fff;"/></g></svg>