<?xml version="1.0" encoding="UTF-8"?><svg id="b" xmlns="http://www.w3.org/2000/svg" viewBox="0 0 255.39 255.44"><g id="c"><path d="m127.47,255.44C58.95,255.75.69,199.5,0,129.18-.69,58.19,56.33.51,126.9,0c68.06-.49,128.53,53.33,128.49,127.82-.03,73.91-59.61,127.74-127.92,127.62ZM17.78,127.84c-.96,59.3,49.18,111.11,112.38,109.89,59.21-1.15,109.52-51.25,107.58-113.64-1.89-60.67-53.71-107.59-112.98-106.3-59.95,1.31-108.18,52.68-106.98,110.05Z" style="fill:#ed243c;"/><path d="m127.86,35.28c51.93.32,92.76,42.86,92.13,93.66-.62,49.81-41.22,91.89-93.89,91.24-48.56-.6-91.94-40.27-90.8-94.59,1.07-50.62,42.1-89.98,92.55-90.31Z" style="fill:#ed243c;"/></g></svg>