<?xml version="1.0" encoding="UTF-8"?><svg id="b" xmlns="http://www.w3.org/2000/svg" viewBox="0 0 510.38 505.07"><g id="c"><rect width="510.38" height="505.07" style="fill:#00ab62;"/></g><g id="d"><g id="e"><path d="m130.95,173.79c-.77-.85-1.46-1.77-2.08-2.75.31-.39.62-.77.92-1.16.33-.41.64-.85,1.31-1.16.1-.05.21-.08.31-.13h0c.15,1.8-.18,3.52-.46,5.19Z"/><path d="m450.26,211.84c-2.16-7.35-1.95-14.9-1.75-22.46.15-6.45.31-12.9.77-19.32.23-3.11-.59-6.11-1.52-9.07-3.55-11.28-7.5-22.38-14.54-32.06-4.26-5.91-9.17-11.28-14-16.7-3.83-4.29-7.73-8.53-11.48-12.9-3.85-4.5-8.66-7.32-14.34-8.74-3.44-.85-6.11-2.67-8.02-5.65-3.08-4.91-7.37-8.04-13.23-8.74-6.5-.75-11.92-5.91-12.62-14.29-.39-4.47-2.39-8.04-6.47-10.07-7.84-3.91-15.57-8.09-23.95-10.82-2.88-.95-5.86-1.39-8.84-1.98-5.22-1-9.69-3.34-13.49-7.01-3.6-3.49-7.32-6.83-12.2-8.56-7.68-2.7-15.11-1.9-22.35,1.62-1.41.69-2.83,1.41-4.21,2.16-3.62,1.95-7.37,2.9-11.48,1.85-2.9-.75-5.65-.05-8.04,1.57-4.21,2.83-8.17,2.75-12.38-.08-5.76-3.88-12.13-6.06-19.19-5.52-3.7.28-7.3,1.08-10.87,2.03-5.58,1.46-11.18,2.83-16.73,4.37-8.84,2.44-15.36,8.2-21.09,15.06-4.01,4.78-7.76,9.84-13.05,13.31-3.16,2.06-6.81,3.39-9.76,5.65-6.65,5.09-12.95,10.92-14.39,19.58-1.82,11-1.59,22.02,3.26,32.45.26.57.62,1.05.85,1.64.95,2.34,3.01,4.32,2.42,7.17-.03.13,0,.31.05.41,2.06,2.72.31,5.09-.69,7.53-.28.72-.57,1.44-.85,2.16-6.63,3.8-11.2,11.69-11.2,20.81,0,2.36.31,4.65.87,6.78-5.22,6.24-10.3,12.59-14.93,19.3-7.58,10.97-13.75,22.56-17.01,35.61-3.21,12.8-3.93,25.62-.41,38.41,1.52,5.55-.13,9.43-4.06,13.36-8.48,8.43-17.65,16.06-26.26,24.31-2.95,2.85-5.24,6.19-5.91,10.35-.85,5.34,1.16,9.81,4.52,13.8,1.36,1.62,2.88,3.13,3.96,4.98,1.46,2.54,1.34,3.93-.72,6.06-1.85,1.93-3.67,3.88-4.73,6.4-1.8,4.32-.62,8.35,1.08,12.36.15.39.33.75.51,1.1,2.9,6.01,2.11,6.37-1.62,9.92-4.21,4.03-4.24,9.71-.51,15.42.82,1.26,1.7,2.49,2.65,3.67,3.65,4.52,5.5,9.76,6.11,15.47.31,2.93,1.54,5.81.44,8.84-.31.87.15,1.88.67,2.72.57.95,1.9,1.59.95,3.13-.59.95-.41,2.26-1.41,3.11-1.21,1.03-1.18,2.29-.28,3.49,1.03,1.34,1.46,2.75,1.41,4.42-.03.82-.08,1.72.21,2.44.82,2.03,1.39,3.73-.85,5.45-1.03.8-.54,2.59.98,3.16,1.49.57,2.29,1.62,2.98,2.9,1.31,2.39,3.26,3.19,6.04,3.8,2.42.51,4.96.57,7.22,1.28,3.11.98,5.94,1.54,8.92.03.77-.39,1.59-.39,2.42-.33,2.59.08,5.22.1,7.81.28,3.39.26,6.55-.15,9.4-2.18,1.46-1.05,3.19-1.31,4.93-1.08,6.99,1,13.82-.46,20.68-1.41,9.63-1.31,19.19-3.34,29.01-3.06,6.5.18,11.74,2.24,15.7,7.73,5.09,7.04,11.2,13.31,15.93,20.68,3.52,5.5,6.68,11.18,9.33,17.14.95,2.13,2.06,4.19,3.52,6.01,2.72,3.39,5.14,3.57,8.2.51,5.04-5.06,9.84-10.33,15-15.26,10.84-10.33,22.25-19.96,33.5-29.83,22.53-19.76,45.12-39.46,67.7-59.17,7.94-6.94,15.96-13.82,23.92-20.76,1.64-1.44,3.37-2.83,4.91-4.37,3.78-3.75,5.11-8.43,5.14-13.67.03-5.11-1.34-10.05-1.85-15.08-1-9.4-.77-18.76,1.16-28.03.82-3.96,1.49-7.94,2.21-11.92.67-3.78,2.16-6.83,6.04-8.38,2.34-.92,3.88-3.01,5.5-4.88,1.8-2.08,3.8-3.96,6.11-5.45,2.13-1.36,4.32-1.67,6.58-.33,1.39.8,2.9,1.39,4.5,1.13,1.62-.26,2.72.39,3.83,1.41.85.8,1.77,1.52,2.72,2.18,3.85,2.65,7.71,2.31,10.53-1.41,2.24-2.95,4.93-4.57,8.53-5.06,1.75-.23,3.42-.92,5.11-1.39.36-.21.75-.41,1.1-.62,7.14-4.5,12.1-10.59,13.75-19.06.62-3.19.82-6.4.77-9.63-.08-3.73.51-7.35,1.21-11,.67-3.73.8-7.45-.31-11.2h0Z" style="fill:#683823;"/><path d="m261.68,280.42c-.64.92-1.39,1.9-2.67,1.26-2.36-1.21-4.62-2.62-6.78-4.21-.51-.39-.95-.85-.62-1.57.39-.77,1.16-.62,2.21-.67,2.39.46,5.01,1.36,7.45,2.75,1.1.62,1.05,1.52.41,2.44h0Z" style="fill:#442d21;"/><path d="m274.47,296.94c-.95-2.06-1.95-4.09-2.95-6.11-1.16-2.36-1.05-4.55.57-6.73,2.13-2.88,1.16-5.4-2.39-6.24-.92-.23-1.88-.39-2.83-.41-2.13-.05-3.91-1-5.22-2.49-1.05-1.18-2.13-2.31-3.24-3.39h0c-.87-.87-1.8-1.7-2.72-2.52-1.18-1.05-2.31-1.28-3.75-.9-2.88.8-4.75,3.11-5.06,5.91-.1.95-.03,1.98.26,3.01.85,3.06,2.57,5.76,3.88,8.61,1.57,3.39,1.08,4.37-2.65,4.93-1.39.21-2.39.8-2.65,2.16-.59,3.29-1.31,6.58-1.28,9.94.03,2.16-.46,4.24-1.49,6.11-1.05,1.9-2.39,3.67-3.44,5.58-1.95,3.57-1.67,7.14.21,10.66.26-.05.33-.03.39-.08.13-.15.33-.31.39-.49.75-3.13,2.93-3.7,5.76-3.39,2.31.26,4.55-.23,6.35-1.82.82-.72,2.42-1.54,1.95-2.59-.51-1.16-2.03-.39-3.13-.15-.13.03-.28.03-.41.05-2.11.18-2.88-.69-2.29-2.67.46-1.57,1.03-3.13,1.67-4.65,1.88-4.47,4.96-5.55,9.2-3.26.54.28,1.05.64,1.52,1.05,1.44,1.26,2.83,2.59,4.29,3.8,1.41,1.16,3.42,1.1,4.47-.15,1.21-1.41.49-2.59-.59-3.75-1.28-1.36-2.75-2.47-4.24-3.57-1.77-1.28-3.57-2.54-5.27-3.93-1-.82-1.95-1.95-1.49-3.34.44-1.23,1.7-1.67,2.9-1.34,4.01,1.13,8.2,1.57,12,3.42.46.23.85.85,1.41.28.54-.51.1-1.08-.1-1.52h0Zm-12.8-16.52c-.64.92-1.39,1.9-2.67,1.26-2.36-1.21-4.62-2.62-6.78-4.21-.51-.39-.95-.85-.62-1.57.39-.77,1.16-.62,2.21-.67,2.39.46,5.01,1.36,7.45,2.75,1.1.62,1.05,1.52.41,2.44h0Z"/><path d="m278.94,314.36c-1.72,2.7-3.85,4.98-6.29,6.96-1.57,1.26-3.42,1.72-5.4.95-1.49-.59-1.82-1.72-.98-3.13.44-.75,1.1-1.23,1.8-1.62,6.65-3.57,9.94-9.51,11.77-16.52.69-2.72.98-5.52,1.9-8.2.41-1.18.1-2.29-.64-3.29-3.08-4.14-4.73-8.89-5.96-13.85-.69-2.83-1.49-5.7-3.42-8.07-.8-.98-1.57-1.88-2.7-2.47-.62-.33-1.41-.59-1.39-1.52.36-.31.69-.21.98,0,4.78,3.29,9.56,6.42,12,12.23,1.54,3.7,3.83,7.04,4.21,11.2.92,9.71-.49,18.91-5.88,27.31h0Z"/><path d="m255.36,334.42c0,1.52-.77,2.75-1.72,2.75s-1.72-1.23-1.72-2.75.77-2.77,1.72-2.77,1.72,1.26,1.72,2.77Z"/><path d="m450.26,211.84c-2.16-7.35-1.95-14.9-1.75-22.46.15-6.45.31-12.9.77-19.32.23-3.11-.59-6.11-1.52-9.07-3.55-11.28-7.5-22.38-14.54-32.06-4.26-5.91-9.17-11.28-14-16.7-3.83-4.29-7.73-8.53-11.48-12.9-3.85-4.5-8.66-7.32-14.34-8.74-3.44-.85-6.11-2.67-8.02-5.65-3.08-4.91-7.37-8.04-13.23-8.74-6.5-.75-11.92-5.91-12.62-14.29-.39-4.47-2.39-8.04-6.47-10.07-7.84-3.91-15.57-8.09-23.95-10.82-2.88-.95-5.86-1.39-8.84-1.98-5.22-1-9.69-3.34-13.49-7.01-3.6-3.49-7.32-6.83-12.2-8.56-7.68-2.7-15.11-1.9-22.35,1.62-1.41.69-2.83,1.41-4.21,2.16-3.62,1.95-7.37,2.9-11.48,1.85-2.9-.75-5.65-.05-8.04,1.57-4.21,2.83-8.17,2.75-12.38-.08-5.76-3.88-12.13-6.06-19.19-5.52-3.7.28-7.3,1.08-10.87,2.03-5.58,1.46-11.18,2.83-16.73,4.37-8.84,2.44-15.36,8.2-21.09,15.06-4.01,4.78-7.76,9.84-13.05,13.31-3.16,2.06-6.81,3.39-9.76,5.65-6.65,5.09-12.95,10.92-14.39,19.58-1.82,11-1.59,22.02,3.26,32.45.26.57.62,1.05.85,1.64.95,2.34,3.01,4.32,2.42,7.17-.03.13,0,.31.05.41,2.06,2.72.31,5.09-.69,7.53-.28.69-.54,1.36-.8,2.06-.03.08-.08.13-.13.15-6.6,3.78-11.1,11.64-11.1,20.71,0,2.31.28,4.52.82,6.63.03.1,0,.21-.05.28-5.16,6.22-10.23,12.51-14.82,19.17-7.58,10.97-13.75,22.56-17.01,35.61-3.21,12.8-3.93,25.62-.41,38.41,1.52,5.55-.13,9.43-4.06,13.36-8.48,8.43-17.65,16.06-26.26,24.31-2.95,2.85-5.24,6.19-5.91,10.35-.85,5.34,1.16,9.81,4.52,13.8,1.36,1.62,2.88,3.13,3.96,4.98,1.46,2.54,1.34,3.93-.72,6.06-1.85,1.93-3.67,3.88-4.73,6.4-1.8,4.32-.62,8.35,1.08,12.36.15.39.33.75.51,1.1,2.9,6.01,2.11,6.37-1.62,9.92-4.21,4.03-4.24,9.71-.51,15.42.82,1.26,1.7,2.49,2.65,3.67,3.65,4.52,5.5,9.76,6.11,15.47.31,2.93,1.54,5.81.44,8.84-.31.87.15,1.88.67,2.72.57.95,1.9,1.59.95,3.13-.59.95-.41,2.26-1.41,3.11-1.21,1.03-1.18,2.29-.28,3.49,1.03,1.34,1.46,2.75,1.41,4.42-.03.82-.08,1.72.21,2.44.82,2.03,1.39,3.73-.85,5.45-1.03.8-.54,2.59.98,3.16,1.49.57,2.29,1.62,2.98,2.9,1.31,2.39,3.26,3.19,6.04,3.8,2.42.51,4.96.57,7.22,1.28,3.11.98,5.94,1.54,8.92.03.77-.39,1.59-.39,2.42-.33,2.59.08,5.22.1,7.81.28,3.39.26,6.55-.15,9.4-2.18,1.46-1.05,3.19-1.31,4.93-1.08,6.99,1,13.82-.46,20.68-1.41,9.63-1.31,19.19-3.34,29.01-3.06,6.5.18,11.74,2.24,15.7,7.73,5.09,7.04,11.2,13.31,15.93,20.68,3.52,5.5,6.68,11.18,9.33,17.14.95,2.13,2.06,4.19,3.52,6.01,2.72,3.39,5.14,3.57,8.2.51,5.04-5.06,9.84-10.33,15-15.26,10.84-10.33,22.25-19.96,33.5-29.83,22.53-19.76,45.12-39.46,67.7-59.17,7.94-6.94,15.96-13.82,23.92-20.76,1.64-1.44,3.37-2.83,4.91-4.37,3.78-3.75,5.11-8.43,5.14-13.67.03-5.11-1.34-10.05-1.85-15.08-1-9.4-.77-18.76,1.16-28.03.82-3.96,1.49-7.94,2.21-11.92.67-3.78,2.16-6.83,6.04-8.38,2.34-.92,3.88-3.01,5.5-4.88,1.8-2.08,3.8-3.96,6.11-5.45,2.13-1.36,4.32-1.67,6.58-.33,1.39.8,2.9,1.39,4.5,1.13,1.62-.26,2.72.39,3.83,1.41.85.8,1.77,1.52,2.72,2.18,3.85,2.65,7.71,2.31,10.53-1.41,2.24-2.95,4.93-4.57,8.53-5.06,1.54-.21,3.03-.77,4.55-1.23.44-.21,1.16-.54,1.59-.75,7.19-4.5,12.18-10.59,13.8-19.09.62-3.19.82-6.4.77-9.63-.08-3.73.51-7.35,1.21-11,.67-3.67.8-7.4-.31-11.15h0Zm-163.66,57.96c.1.36-.39.57-.57.26-2.88-4.68-6.73-8.74-11.59-12.1-.31-.21-.64-.44-.95-.62s-.1-.64.26-.57c6.91,1.62,10.82,6.6,12.85,13.03h0Zm49.54,98.63c-8.5,6.55-16.91,13.23-25.23,20.01-11.74,9.56-23.1,19.53-34.33,29.68-8.86,7.99-17.52,16.19-26.16,24.43-8.38,8.02-16.49,16.29-24.77,24.43-1.67,1.64-1.57,1.59-2.62-.62-1.88-4.03-3.37-8.12-2.93-12.64.54-5.6,2.52-10.77,4.91-15.8,2.77-5.86,7.14-10.69,10.71-16.01,4.42-6.58,9.25-12.9,13.05-19.91,1.7-3.13,3.57-6.14,4.39-9.69.31-1.28.23-2.42-.15-3.62-1-3.06-2.36-6.04-2.85-9.22-.82-5.32-.51-10.2,4.26-14.08,3.11-2.54,5.09-6.24,7.35-9.58,5.24-7.76,9.99-15.85,14.75-23.92.36-.62.72-1.23,1.1-1.85.75-1.23,1.49-2.44,2.13-3.73.33-.64.62-1.28.9-1.95-.1,0-.18.03-.26.03-.15.03-.31.1-.44.18-.05.05-.13.1-.18.15-.03.03-.05.05-.08.1-.28.33-.49.8-.8,1.08-5.52,5.34-10.43,11.33-16.78,15.78-3.16,2.21-6.47,4.03-10.53,4.14-5.32.15-9.15-2.42-12.23-6.37-1.59-2.06-2.98-4.26-4.47-6.4-1.23-1.77-2.18-1.85-3.42-.05-1.46,2.08-2.31,4.14-2.06,7.01.49,5.37.77,10.87-.77,16.14-.82,2.77-2.24,5.29-5.04,6.91-4.57,2.65-9.12,5.32-13.95,7.48-11.59,5.24-23.1,10.71-34.97,15.34-6.65,2.59-12.64,6.5-18.76,10.17-5.01,3.01-9.51,6.71-14.49,9.69-1.46.87-2.95,1.72-4.68,2-5.47.92-10.38,3.78-15.85,4.78-1.39.26-2.75.82-4.09,1.39-1.59.67-3.11,1.08-4.68-.03-.26-.18-.69-.39-.95-.31-2.75.87-4.93-.41-7.14-1.7-.87-.51-1.82-.67-2.77-.57-2.31.26-4.65,1.23-6.91-.33-.18-.13-.57-.08-.8.03-4.39,2-8.45-.49-12.64-1-1.62-.21-2.59-1.9-3.08-3.37-1.16-3.39-2.39-6.76-2.39-10.38,0-.23,0-.46.03-.69.03-.46.05-.92.13-1.41.03-.23.08-.46.13-.72,0-.03,0-.05.03-.05,0-.03,0-.05.03-.05.03-.1.03-.18.05-.28.03-.08.05-.18.05-.26.05-.21.1-.41.18-.62.1-.31.21-.59.33-.85.08-.18.18-.36.26-.51l.15-.26c.1-.15.21-.31.31-.46.1-.15.23-.28.36-.44,1.39-1.54,3.47-2.18,6.06-1.72,2.11.36,4.21.62,6.19-.57,1.52-.9,1.72-1.88.26-2.8-3.37-2.13-5.86-5.01-8.04-8.32-1.9-2.88-5.16-2.59-8.04-1.82-6.4,1.7-5.34,1.95-9.25-3.75-1.85-2.7-1.59-4.19.69-6.53,1.77-1.8,3.67-3.44,4.78-5.86.82-1.77,2.42-2,4.37-1.31,3.91,1.41,7.45,3.34,10.51,6.24,2.06,1.95,4.5,3.62,7.37,4.24,1.59.33,3.21.21,4.24-1.34.85-1.26,1.23-2.49.36-4.01-.62-1.05-1.41-1.13-2.42-1.13-2.8-.03-3.03-.26-3.57-3.08-.08-.46-.23-.92-.33-1.39-.23-1.03-.8-.9-1.23-.23-1.82,2.8-4.27,2.42-6.91,1.59-3.11-.98-5.76-3.01-8.81-3.96-3.16-.98-4.68-3.06-5.76-5.88-.59-1.52-1.44-2.95-1.85-4.57-.51-2-.39-3.75.9-5.6,2.08-3.06,4.86-4.62,8.35-5.27.95-.18,1.49.21,2.08.9,3.37,4.06,7.43,7.22,12.13,9.61,1.8.92,3.6.72,5.34-.05.54-.23,1.13-.67,1.23-1.31.13-.8-.69-.95-1.21-1.18-4.32-1.98-7.89-4.91-11.15-8.32-1.41-1.49-1.98-3.83-4.44-4.37-.64-.13-.21-.92.15-1.36,2.06-2.75,5.22-3.91,8.35-2.62,4.37,1.8,7.91.39,10.74-2.42.08-.08.15-.15.23-.23.15-.15.28-.31.44-.46.13-.15.28-.31.41-.49.21-.23.39-.49.54-.77.03-.08.08-.13.1-.21.08-.13.13-.28.21-.41.33-.82.49-1.7.36-2.65-.08-.67-.26-1.23-.85-1.57-.77-.44-1.13.28-1.54.67-1.54,1.46-2.98,3.03-4.6,4.42-2.44,2.08-4.62,1.9-6.83-.41-1.44-1.49-2.42-3.31-3.57-5.01-3.08-4.55-9.43-4.03-11.87.98-.72,1.44-.69,2.95.64,4.14.67.59,1.36,1.16,2.21,1.85.18.15.15.44-.05.54-1.26.62-2.18.67-2.83-.33-2.13-3.34-5.01-6.17-6.91-9.69-1.28-2.39-1.36-4.86-.28-7.32,1.82-4.16,5.22-6.99,8.63-9.76,6.24-5.06,12.08-10.53,17.75-16.21,2.52-2.52,5.22-4.86,7.35-7.76,2.57-3.49,3.13-7.32,2.21-11.48-1.28-5.73-2.72-11.46-2.75-17.39v-.31c0-.31.41-.44.59-.15,1.21,2,2.95,3.39,4.91,4.7,3.16,2.11,3.73,5.76,4.44,9.2.26,1.26.41,2.49.1,3.85-.49,2.16.26,3.78,2.44,4.83,2.77,1.34,5.32,3.11,7.48,5.37,2.11,2.18,2.72,2.18,5.47.33,2.39-1.59,4.29-1.67,6.45-.21.46.31,1.03.59,1,1.21,0,.72-.62,1-1.21,1.21-2.72.95-5.37,2.03-8.22,2.65-2.8.59-3.57.44-4.14-1.88-.08-.31-.51-.33-.62-.03-.36,1.23-.18,2.34.54,3.37.92,1.31,2.36,1.05,3.6.69,3.62-1.08,7.17-2.29,10.77-3.47,1.62-.54,3.26-1.08,4.83-1.72,1.98-.8,2.31-2.06.95-3.65-2.7-3.16-5.91-5.55-10.02-6.63-.33-.08-.54.33-.28.57.98.8,1.95,1.59,2.95,2.36.49.39,1.03.69,1.54,1.03.28.18.64.39.49.8-.15.44-.59.62-1,.54-.54-.1-1.05-.28-1.57-.46-4.6-1.62-9.2-3.24-13.77-4.88-1.16-.41-2.42-.87-2.49-2.39-.08-1.13.21-2,1.64-1.31.13.05.23.13.36.18.77.26,1.82,1.31,2.31.26.67-1.39-.98-1.59-1.82-1.9-2.34-.8-4.44-1.9-4.57-4.65-.15-3.39,1.08-6.42,4.01-8.3,1.57-1,3.57-.64,5.37-.05,4.93,1.59,9.81,3.39,15,4.09,1.98.26,3.44-.46,3.65-1.9.33-2.49.36-2.44-2.16-1.88-3.34.75-6.17-.67-8.89-2.36-3.08-1.9-5.96-4.14-9.71-4.73-1.18-.18-2.34-.31-3.47.05-3.85,1.18-7.55.85-11.23-.72-1.41-.59-2.85-1.36-4.55-.95-1.26.31-.87-.8-.85-1.34.21-3.29.77-6.5,1.49-9.71,2.52-11.46,7.25-21.94,13.77-31.68,4.83-7.22,10.12-14.11,15.52-20.89.31-.39.62-.77.92-1.16.33-.41.64-.85,1.31-1.16.1-.05.21-.08.31-.13h0c.18,1.8-.15,3.52-.44,5.19h0c-.1.62-.21,1.23-.26,1.85-.28,2.83-.92,5.5-2.52,7.91-.59.9-.98,2.06-.72,3.16.77,3.44-1.1,6.09-2.54,8.81-2.06,3.88-3.08,8.07-3.96,12.26-.64,3.08.82,5.94,2.83,8.32,1.31,1.57,2.75,1.34,4.06-.28,4.39-5.4,8.32-11.07,10.77-17.63,1.85-4.93,3.52-9.94,5.68-14.77.46-1.05.98-2.06,1.52-3.03,2.75-5.04,6.47-9.28,11.69-12.15,1.16-.64,2.65-1.67,3.73-.49,1.03,1.1-.33,2.42-.92,3.47-.75,1.39-1.62,2.7-2.54,3.96-2.03,2.75-4.32,5.32-6.27,8.14-5.16,7.5-10.2,15.08-14.9,22.89-1.52,2.52-3.11,5.01-4.62,7.53-.31.51-.51,1.1-.75,1.67-.62,1.64-.98,3.42.85,4.37,1.85.95,3.26-.51,4.09-1.9,3.52-5.96,7.4-11.69,11.15-17.5,4.7-7.27,9.02-14.82,14.36-21.71,1.62-2.08,3.6-3.85,5.78-5.19,4.98-3.08,7.43-2.7,12.8,1.54,3.26,2.59,6.55,5.19,9.56,8.09,2.88,2.77,5.99,5.55,6.01,10.1,0,1.72-6.89,30.29-9.66,45.45-.15.9.39,1.75,1.26,1.98,4.39,1.16,16.88,4.34,20.76,7.4,14.23,11.18,10.46,40.9,10.17,54.73,0,.18,5.68.59,5.86.59,5.78.15-3.37-.18,2.47-.03.15,0,.31-.1.33-.28.8-6.63-.05-14.29,2.26-20.53.67-1.77,1.59-3.57,2.77-5.32,2.98-4.44,14.36-11,14.85-11.38,2.72-2.18,5.81-4.06,8.92-5.76,1.41-.77,2.8-1.49,4.19-2.18,4.14-2.11,8.32-1.54,13.13,1.8,7.81,5.42,12.95,12.69,15.31,21.68h0c.33,8.04-.75,16.57-1.82,23.25-.28,1.7-.69,3.34-1.26,4.93-2,5.63-1.54,11.84,1.21,17.14,4.09,7.86,8.14,15.72,12.23,23.56,2.95,5.68,7.89,21.79,15.67,22.3,4.86.33,9.35-1.67,13.93-2.93,2.47-.69,5.01-1.18,7.5-1.77.46-.05.67.39.39.59h0Z"/></g></g></svg>